<svg width="164" height="35" viewBox="0 0 164 35" fill="none" xmlns="http://www.w3.org/2000/svg">
<rect width="16.8578" height="35" rx="6.26147" fill="#6C43FF"/>
<rect x="16.8574" width="16.8578" height="35" rx="6.26147" fill="#6C43FF"/>
<path d="M5.99728 5.99219H6.49728H15.5364H16.0364V6.49219V10.2044C16.2762 10.1253 16.5531 10.0092 16.8599 9.83286L16.8603 9.83262C17.2991 9.58096 17.7066 9.25195 18.006 8.7916C18.3028 8.33524 18.513 7.71965 18.513 6.86054V6.49219V5.99219H19.013H27.3569H27.8569V6.49219V18.925C27.8638 18.9873 27.8636 19.0497 27.8569 19.111V28.5933V29.0933H27.3569H19.7186C19.7144 29.0933 19.7102 29.0933 19.706 29.0933H18.992C18.9878 29.0933 18.9836 29.0933 18.9794 29.0933H17.0179C16.9558 29.1006 16.8938 29.1004 16.8328 29.0933H14.1481H14.1458V28.5933C14.0209 28.5947 13.9041 28.5257 13.8402 28.4106L5.99728 5.99219ZM5.99728 5.99219V6.49219V18.9213M5.99728 5.99219V18.9213M5.99728 18.9213C5.99058 18.9826 5.9904 19.045 5.99728 19.1074V28.5933V29.0933H6.49728H8.92856H8.9309V28.5933M5.99728 18.9213L13.8402 28.0393C13.9041 27.9242 14.0209 27.8552 14.1458 27.8566V27.3566H14.1481H16.0794V19.8845H15.191H15.1888V19.3845M8.9309 28.5933C9.05584 28.5947 9.17263 28.5257 9.23646 28.4106C9.29893 28.2955 9.29893 28.1544 9.23646 28.0393C9.17263 27.9242 9.05584 27.8552 8.9309 27.8566M8.9309 28.5933H6.99728M8.9309 28.5933H6.99728M8.9309 27.8566V27.3566H8.92856H7.6926V19.8845H12.4209H12.4231V19.3845M8.9309 27.8566H7.6926H8.9309ZM12.4231 19.3845C12.548 19.3859 12.6648 19.3169 12.7287 19.2018C12.7911 19.0867 12.7911 18.9456 12.7287 18.8305C12.6648 18.7154 12.548 18.6464 12.4231 18.6478M12.4231 19.3845H7.6926H12.4231ZM12.4231 18.6478V18.1478H12.4209H7.6926V13.1995H10.1837H10.1859V12.6995M12.4231 18.6478H7.6926H12.4231ZM10.1859 12.6995C10.3108 12.7009 10.4276 12.6318 10.4915 12.5167C10.5539 12.4016 10.5539 12.2606 10.4915 12.1455C10.4276 12.0304 10.3108 11.9613 10.1859 11.9628M10.1859 12.6995H7.75854H10.1859ZM10.1859 11.9628V11.4628H10.1837H7.6926V7.72889H14.3411V11.6808V12.2267L14.8849 12.1788L15.2596 12.1459L15.2599 12.1459L15.2605 12.1458L15.2611 12.1458L15.2621 12.1457L15.2664 12.1453L15.2799 12.144C15.291 12.1429 15.3062 12.1412 15.3253 12.139C15.3635 12.1345 15.4172 12.1276 15.4843 12.1172C15.6184 12.0964 15.8066 12.0619 16.0313 12.0061C16.4787 11.895 17.0809 11.6969 17.6894 11.3474L17.6895 11.3474C18.7681 10.7277 19.8367 9.5645 20.107 7.72889H22.6711V9.95998V9.96196H23.1711M10.1859 11.9628H7.75854H10.1859ZM23.1711 9.96196C23.1698 10.0943 23.235 10.2181 23.3436 10.2857C23.4522 10.3519 23.5853 10.3519 23.694 10.2857C23.8026 10.2181 23.8678 10.0943 23.8665 9.96196M23.1711 9.96196V7.72889V9.96196ZM23.8665 9.96196H24.3665V9.95998V7.72889H26.1616V18.1478H25.6208H25.6186V18.6478M23.8665 9.96196V7.72889V9.96196ZM25.6186 18.6478C25.4936 18.6464 25.3768 18.7154 25.313 18.8305C25.2505 18.9456 25.2505 19.0867 25.313 19.2018C25.3768 19.3169 25.4936 19.3859 25.6186 19.3845M25.6186 18.6478H26.1616H25.6186ZM25.6186 19.3845V19.8845H25.6208H26.1616V27.3566H19.7186C19.7144 27.3566 19.7102 27.3566 19.706 27.3566H18.992C18.9878 27.3566 18.9836 27.3566 18.9794 27.3566H17.7747V19.8845H18.6632H18.6654V19.3845M25.6186 19.3845H26.1616H25.6186ZM18.6654 19.3845C18.7903 19.3859 18.9071 19.3169 18.9709 19.2018C19.0334 19.0867 19.0334 18.9456 18.9709 18.8305C18.9071 18.7154 18.7903 18.6464 18.6654 18.6478M18.6654 19.3845H17.7747H18.6654ZM18.6654 18.6478V18.1478H18.6632H17.0148C16.9905 18.145 16.957 18.142 16.9216 18.142H16.8996L16.8777 18.144C16.877 18.144 16.876 18.1441 16.8748 18.1442C16.8682 18.1448 16.8548 18.1459 16.8381 18.1478H15.191H15.1888V18.6478M18.6654 18.6478H16.9814H18.6654ZM15.1888 18.6478C15.0638 18.6464 14.947 18.7154 14.8832 18.8305C14.8207 18.9456 14.8207 19.0867 14.8832 19.2018C14.947 19.3169 15.0638 19.3859 15.1888 19.3845M15.1888 18.6478H16.8714H15.1888ZM15.1888 19.3845H16.0794H15.1888ZM6.99728 28.5933H6.49728V28.0933L6.99728 28.5933ZM17.2747 19.8845V27.3566V19.8845ZM17.7747 27.8566H18.2169H17.7747ZM7.1926 19.8845V27.3566V19.8845Z" fill="white" stroke="#6C43FF"/>
<path d="M49.7073 24.28C48.0273 24.28 46.5873 23.984 45.3873 23.392C44.2033 22.8 43.2913 21.88 42.6513 20.632C42.0273 19.368 41.7153 17.744 41.7153 15.76C41.7153 12.864 42.4193 10.72 43.8273 9.328C45.2353 7.936 47.1953 7.24 49.7073 7.24C51.0673 7.24 52.2913 7.472 53.3793 7.936C54.4833 8.4 55.3553 9.104 55.9953 10.048C56.6513 10.976 56.9793 12.16 56.9793 13.6H53.7873C53.7873 12.8 53.6113 12.128 53.2593 11.584C52.9233 11.024 52.4513 10.6 51.8433 10.312C51.2353 10.024 50.5393 9.88 49.7553 9.88C48.6673 9.88 47.7633 10.096 47.0433 10.528C46.3233 10.944 45.7873 11.568 45.4353 12.4C45.0993 13.232 44.9313 14.264 44.9313 15.496V16.024C44.9313 17.272 45.0993 18.312 45.4353 19.144C45.7873 19.976 46.3153 20.6 47.0193 21.016C47.7393 21.432 48.6513 21.64 49.7553 21.64C50.5873 21.64 51.3153 21.504 51.9393 21.232C52.5633 20.944 53.0433 20.528 53.3793 19.984C53.7313 19.424 53.9073 18.744 53.9073 17.944H56.9793C56.9793 19.384 56.6593 20.576 56.0193 21.52C55.3793 22.448 54.5073 23.144 53.4033 23.608C52.3153 24.056 51.0833 24.28 49.7073 24.28Z" fill="white"/>
<path d="M61.1722 28.36C60.5802 28.36 60.1002 28.312 59.7322 28.216C59.3642 28.136 59.1562 28.088 59.1082 28.072V25.984H60.4522C60.7882 25.984 61.1242 25.896 61.4602 25.72C61.7962 25.544 62.1002 25.304 62.3722 25C62.6442 24.696 62.8442 24.36 62.9722 23.992L58.0522 11.368H61.1242L63.4762 17.416C63.5882 17.688 63.7002 18.032 63.8122 18.448C63.9402 18.864 64.0682 19.296 64.1962 19.744C64.3242 20.176 64.4282 20.568 64.5082 20.92H64.6282C64.6922 20.68 64.7642 20.408 64.8442 20.104C64.9242 19.8 65.0042 19.488 65.0842 19.168C65.1802 18.848 65.2762 18.536 65.3722 18.232C65.4682 17.928 65.5482 17.664 65.6122 17.44L67.5322 11.368H70.5082L66.2842 23.344C66.0442 24.016 65.7722 24.656 65.4682 25.264C65.1802 25.872 64.8362 26.408 64.4362 26.872C64.0522 27.336 63.5882 27.696 63.0442 27.952C62.5162 28.224 61.8922 28.36 61.1722 28.36Z" fill="white"/>
<path d="M78.8913 24.28C78.0753 24.28 77.3313 24.12 76.6593 23.8C75.9873 23.464 75.4433 22.968 75.0273 22.312H74.8593L74.6193 23.992H72.1953V6.64H75.1233V12.832H75.2673C75.5233 12.448 75.8353 12.128 76.2033 11.872C76.5713 11.6 76.9953 11.4 77.4753 11.272C77.9553 11.144 78.4833 11.08 79.0593 11.08C80.0033 11.08 80.8353 11.312 81.5553 11.776C82.2913 12.24 82.8673 12.96 83.2833 13.936C83.6993 14.896 83.9073 16.136 83.9073 17.656C83.9073 19.192 83.6993 20.448 83.2833 21.424C82.8833 22.4 82.3073 23.12 81.5553 23.584C80.8193 24.048 79.9313 24.28 78.8913 24.28ZM77.9793 21.76C78.6993 21.76 79.2673 21.624 79.6833 21.352C80.1153 21.064 80.4193 20.632 80.5953 20.056C80.7873 19.48 80.8833 18.752 80.8833 17.872V17.536C80.8833 16.64 80.7873 15.904 80.5953 15.328C80.4193 14.736 80.1153 14.304 79.6833 14.032C79.2673 13.744 78.6993 13.6 77.9793 13.6C77.4833 13.6 77.0513 13.688 76.6833 13.864C76.3313 14.04 76.0353 14.296 75.7953 14.632C75.5713 14.968 75.4033 15.384 75.2913 15.88C75.1793 16.376 75.1233 16.936 75.1233 17.56V17.872C75.1233 18.704 75.2193 19.408 75.4113 19.984C75.6193 20.56 75.9313 21 76.3473 21.304C76.7793 21.608 77.3233 21.76 77.9793 21.76Z" fill="white"/>
<path d="M91.8225 24.28C90.4785 24.28 89.3585 24.048 88.4625 23.584C87.5665 23.104 86.8945 22.376 86.4465 21.4C85.9985 20.424 85.7745 19.184 85.7745 17.68C85.7745 16.16 85.9985 14.92 86.4465 13.96C86.8945 12.984 87.5665 12.264 88.4625 11.8C89.3585 11.32 90.4785 11.08 91.8225 11.08C93.0385 11.08 94.0545 11.312 94.8705 11.776C95.7025 12.224 96.3265 12.92 96.7425 13.864C97.1585 14.808 97.3665 16.032 97.3665 17.536V18.4H88.7745C88.8065 19.184 88.9265 19.848 89.1345 20.392C89.3425 20.92 89.6625 21.32 90.0945 21.592C90.5425 21.848 91.1265 21.976 91.8465 21.976C92.2145 21.976 92.5585 21.928 92.8785 21.832C93.1985 21.736 93.4785 21.592 93.7185 21.4C93.9585 21.192 94.1425 20.936 94.2705 20.632C94.4145 20.328 94.4865 19.976 94.4865 19.576H97.3665C97.3665 20.376 97.2225 21.072 96.9345 21.664C96.6625 22.256 96.2705 22.744 95.7585 23.128C95.2625 23.512 94.6785 23.8 94.0065 23.992C93.3345 24.184 92.6065 24.28 91.8225 24.28ZM88.8225 16.336H94.3185C94.3185 15.808 94.2545 15.36 94.1265 14.992C94.0145 14.624 93.8465 14.32 93.6225 14.08C93.4145 13.84 93.1585 13.672 92.8545 13.576C92.5505 13.464 92.2065 13.408 91.8225 13.408C91.1985 13.408 90.6705 13.512 90.2385 13.72C89.8225 13.928 89.5025 14.248 89.2785 14.68C89.0545 15.112 88.9025 15.664 88.8225 16.336Z" fill="white"/>
<path d="M99.8516 23.992V11.368H102.3L102.54 13.36H102.708C102.868 12.96 103.06 12.592 103.284 12.256C103.524 11.904 103.828 11.624 104.196 11.416C104.564 11.192 105.012 11.08 105.54 11.08C105.796 11.08 106.028 11.104 106.236 11.152C106.46 11.2 106.628 11.248 106.74 11.296V14.056H105.852C105.356 14.056 104.916 14.128 104.532 14.272C104.148 14.4 103.82 14.608 103.548 14.896C103.292 15.184 103.1 15.544 102.972 15.976C102.844 16.408 102.78 16.912 102.78 17.488V23.992H99.8516Z" fill="white"/>
<path d="M108.811 23.992V7.528H117.475C118.691 7.528 119.699 7.736 120.499 8.152C121.299 8.568 121.899 9.16 122.299 9.928C122.699 10.696 122.899 11.6 122.899 12.64C122.899 13.712 122.659 14.664 122.179 15.496C121.699 16.312 120.995 16.928 120.067 17.344L123.475 23.992H120.067L117.043 17.872H111.931V23.992H108.811ZM111.931 15.256H117.235C118.035 15.256 118.651 15.024 119.083 14.56C119.515 14.096 119.731 13.456 119.731 12.64C119.731 12.112 119.635 11.672 119.443 11.32C119.251 10.952 118.971 10.672 118.603 10.48C118.235 10.288 117.779 10.192 117.235 10.192H111.931V15.256Z" fill="white"/>
<path d="M128.756 24.28C128.404 24.28 127.996 24.232 127.532 24.136C127.084 24.056 126.644 23.896 126.212 23.656C125.796 23.416 125.452 23.064 125.18 22.6C124.908 22.12 124.772 21.496 124.772 20.728C124.772 19.864 124.964 19.152 125.348 18.592C125.732 18.016 126.268 17.568 126.956 17.248C127.66 16.912 128.492 16.68 129.452 16.552C130.428 16.408 131.492 16.336 132.644 16.336V15.304C132.644 14.936 132.588 14.608 132.476 14.32C132.364 14.032 132.156 13.808 131.852 13.648C131.564 13.472 131.124 13.384 130.532 13.384C129.94 13.384 129.476 13.456 129.14 13.6C128.804 13.744 128.572 13.92 128.444 14.128C128.316 14.336 128.252 14.552 128.252 14.776V15.112H125.42C125.404 15.032 125.396 14.952 125.396 14.872C125.396 14.792 125.396 14.696 125.396 14.584C125.396 13.864 125.612 13.24 126.044 12.712C126.476 12.184 127.076 11.784 127.844 11.512C128.612 11.224 129.5 11.08 130.508 11.08C131.66 11.08 132.604 11.24 133.34 11.56C134.092 11.88 134.652 12.336 135.02 12.928C135.388 13.52 135.572 14.24 135.572 15.088V21.04C135.572 21.344 135.66 21.56 135.836 21.688C136.012 21.816 136.204 21.88 136.412 21.88H137.18V23.896C137.02 23.96 136.788 24.032 136.484 24.112C136.18 24.208 135.804 24.256 135.356 24.256C134.94 24.256 134.564 24.184 134.228 24.04C133.908 23.912 133.636 23.72 133.412 23.464C133.188 23.208 133.028 22.904 132.932 22.552H132.788C132.516 22.888 132.188 23.192 131.804 23.464C131.436 23.72 130.996 23.92 130.484 24.064C129.988 24.208 129.412 24.28 128.756 24.28ZM129.644 21.88C130.124 21.88 130.548 21.808 130.916 21.664C131.3 21.52 131.612 21.32 131.852 21.064C132.108 20.808 132.3 20.496 132.428 20.128C132.572 19.76 132.644 19.36 132.644 18.928V18.352C131.764 18.352 130.948 18.408 130.196 18.52C129.46 18.632 128.868 18.84 128.42 19.144C127.988 19.448 127.772 19.88 127.772 20.44C127.772 20.728 127.836 20.984 127.964 21.208C128.108 21.416 128.316 21.584 128.588 21.712C128.876 21.824 129.228 21.88 129.644 21.88Z" fill="white"/>
<path d="M144.108 24.28C142.796 24.28 141.7 24.048 140.82 23.584C139.956 23.104 139.308 22.376 138.876 21.4C138.444 20.424 138.228 19.184 138.228 17.68C138.228 16.16 138.444 14.92 138.876 13.96C139.324 12.984 139.98 12.264 140.844 11.8C141.724 11.32 142.812 11.08 144.108 11.08C144.956 11.08 145.708 11.184 146.364 11.392C147.02 11.6 147.58 11.92 148.044 12.352C148.524 12.768 148.884 13.288 149.124 13.912C149.364 14.536 149.484 15.264 149.484 16.096H146.508C146.508 15.504 146.42 15.016 146.244 14.632C146.068 14.248 145.796 13.96 145.428 13.768C145.076 13.56 144.62 13.456 144.06 13.456C143.404 13.456 142.868 13.608 142.452 13.912C142.036 14.216 141.724 14.672 141.516 15.28C141.324 15.872 141.228 16.624 141.228 17.536V17.848C141.228 18.744 141.324 19.496 141.516 20.104C141.724 20.712 142.044 21.168 142.476 21.472C142.908 21.76 143.476 21.904 144.18 21.904C144.724 21.904 145.172 21.808 145.524 21.616C145.892 21.408 146.172 21.104 146.364 20.704C146.556 20.304 146.652 19.824 146.652 19.264H149.484C149.484 20.048 149.364 20.752 149.124 21.376C148.884 22 148.532 22.528 148.068 22.96C147.604 23.392 147.036 23.72 146.364 23.944C145.708 24.168 144.956 24.28 144.108 24.28Z" fill="white"/>
<path d="M151.977 23.992V6.64H154.905V16.744L159.441 11.368H162.873L158.649 16.264L163.113 23.992H159.753L156.777 18.4L154.905 20.2V23.992H151.977Z" fill="white"/>
</svg>
